<svg height="512pt" viewBox="-43 0 512 512" width="512pt" xmlns="http://www.w3.org/2000/svg"><g fill="#ff8088"><path d="m384.648438 473.273438c-44.207032-15.941407-47.429688-67.769532-47.59375-71.261719v-175.988281c-10.304688-3.976563-20.449219-6.578126-29.824219-5.203126-2.824219.414063-5.492188 1.074219-8.058594 1.917969v179.625c0 .179688.003906.355469.007813.535157.058593 2.074218.824218 20.910156 9.554687 42.9375 12.199219 30.785156 34.007813 52.597656 63.0625 63.074218 2.121094.765625 4.292969 1.128906 6.421875 1.128906 7.757812 0 15.035156-4.800781 17.820312-12.519531 3.550782-9.839843-1.550781-20.695312-11.390624-24.246093zm0 0"/><path d="m213.300781 254.492188v236.039062c0 11.855469 9.613281 21.46875 21.46875 21.46875s21.464844-9.609375 21.464844-21.46875v-244.585938c-11.023437 4.90625-24.511719 8.546876-42.933594 8.546876zm0 0"/><path d="m127.429688 222.738281v267.792969c0 11.855469 9.609374 21.46875 21.464843 21.46875 11.859375 0 21.46875-9.609375 21.46875-21.46875v-244.585938c-17.261719-7.679687-28.460937-18.445312-42.933593-23.207031zm0 0"/></g><path d="m256.234375 245.945312v244.585938c0 11.855469 9.613281 21.46875 21.46875 21.46875s21.46875-9.609375 21.46875-21.46875v-267.792969c-14.476563 4.761719-25.671875 15.527344-42.9375 23.207031zm0 0" fill="#ff9aa1"/><path d="m170.363281 490.53125c0 11.855469 9.613281 21.46875 21.46875 21.46875s21.46875-9.609375 21.46875-21.46875v-236.039062c-18.421875 0-31.914062-3.644532-42.9375-8.546876zm0 0" fill="#ff9aa1"/><path d="m119.371094 220.820312c-9.375-1.375-19.519532 1.226563-29.824219 5.203126v175.988281c-.164063 3.492187-3.386719 55.320312-47.59375 71.261719-9.839844 3.550781-14.941406 14.40625-11.390625 24.246093 2.78125 7.71875 10.058594 12.519531 17.816406 12.519531 2.132813 0 4.304688-.359374 6.425782-1.125 29.054687-10.480468 50.859374-32.289062 63.0625-63.074218 8.730468-22.03125 9.496093-40.867188 9.554687-42.941406.003906-.175782.007813-.355469.007813-.535157v-179.625c-2.566407-.84375-5.234376-1.503906-8.058594-1.917969zm0 0" fill="#ff9aa1"/><path d="m213.300781 254.492188c52.382813 0 64.992188-29.425782 93.929688-33.671876 39.742187-5.828124 93.316406 59.738282 114.40625-.648437 28.210937-80.792969-66.835938-220.171875-208.335938-220.171875s-236.550781 139.378906-208.335937 220.171875c21.085937 60.386719 74.664062-5.179687 114.40625.648437 28.9375 4.246094 41.542968 33.671876 93.929687 33.671876zm0 0" fill="#ffb5bb"/><path d="m89.542969 226.023438v27.972656c10.308593-3.980469 20.453125-6.578125 29.824219-5.203125 2.828124.414062 5.492187 1.074219 8.0625 1.917969v-27.972657c-2.570313-.84375-5.234376-1.503906-8.0625-1.917969-9.371094-1.375-19.515626 1.226563-29.824219 5.203126zm0 0" fill="#ff8088"/><path d="m127.429688 250.710938c14.472656 4.757812 25.671874 15.527343 42.933593 23.207031v-27.972657c-17.261719-7.679687-28.460937-18.445312-42.933593-23.207031zm0 0" fill="#ff646f"/><path d="m170.363281 245.945312v27.972657c11.023438 4.902343 24.515625 8.546875 42.9375 8.546875v-27.972656c-18.421875 0-31.914062-3.640626-42.9375-8.546876zm0 0" fill="#ff8088"/><path d="m213.300781 282.464844c18.421875 0 31.910157-3.644532 42.933594-8.546875v-27.972657c-11.019531 4.90625-24.511719 8.550782-42.933594 8.550782zm0 0" fill="#ff646f"/><path d="m256.234375 273.917969c17.265625-7.679688 28.460937-18.449219 42.9375-23.207031v-27.972657c-14.476563 4.761719-25.671875 15.527344-42.9375 23.207031zm0 0" fill="#ff8088"/><path d="m307.230469 248.792969c9.375-1.375 19.519531 1.222656 29.824219 5.203125v-27.972656c-10.304688-3.976563-20.449219-6.578126-29.824219-5.203126-2.824219.414063-5.492188 1.074219-8.058594 1.917969v27.972657c2.566406-.84375 5.234375-1.503907 8.058594-1.917969zm0 0" fill="#ff646f"/><path d="m421.636719 192.203125c-21.089844 60.382813-74.664063-5.179687-114.40625.648437-28.9375 4.242188-41.546875 33.671876-93.929688 33.671876-52.382812 0-64.992187-29.429688-93.929687-33.671876-39.742188-5.828124-93.320313 59.734376-114.40625-.648437-1.933594-5.535156-3.265625-11.355469-4.066406-17.375-1.957032 16.160156-.730469 31.601563 4.066406 45.34375 21.085937 60.386719 74.664062-5.179687 114.40625.648437 28.9375 4.246094 41.546875 33.671876 93.929687 33.671876 52.382813 0 64.992188-29.425782 93.929688-33.671876 39.742187-5.828124 93.316406 59.738282 114.40625-.648437 4.796875-13.742187 6.023437-29.183594 4.066406-45.34375-.800781 6.019531-2.136719 11.839844-4.066406 17.375zm0 0" fill="#ff9aa1"/><path d="m128.523438 102.941406c-8.84375 0-15.769532 8.605469-15.769532 19.585938 0 10.984375 6.925782 19.589844 15.769532 19.589844s15.769531-8.605469 15.769531-19.589844c0-10.980469-6.925781-19.585938-15.769531-19.585938zm0 0" fill="#433f43"/><path d="m298.078125 102.941406c-8.84375 0-15.769531 8.605469-15.769531 19.585938 0 10.984375 6.925781 19.589844 15.769531 19.589844 8.839844 0 15.769531-8.605469 15.769531-19.589844 0-10.980469-6.929687-19.585938-15.769531-19.585938zm0 0" fill="#433f43"/></svg>